<mxfile host="app.diagrams.net" agent="Mozilla/5.0 (Windows NT 10.0; Win64; x64) AppleWebKit/537.36 (KHTML, like Gecko) Chrome/136.0.0.0 Safari/537.36 Edg/136.0.0.0" version="27.0.4">
  <diagram name="Page-1" id="FlRIGTBOyQrMQeujN8S3">
    <mxGraphModel dx="994" dy="618" grid="1" gridSize="10" guides="1" tooltips="1" connect="1" arrows="1" fold="1" page="1" pageScale="1" pageWidth="850" pageHeight="1100" background="#ffffff" math="0" shadow="0">
      <root>
        <mxCell id="0" />
        <mxCell id="1" parent="0" />
        <mxCell id="Idra984USDowkpM-jz45-1" value="BERT" style="points=[[0,0],[0.25,0],[0.5,0],[0.75,0],[1,0],[1,0.25],[1,0.5],[1,0.75],[1,1],[0.75,1],[0.5,1],[0.25,1],[0,1],[0,0.75],[0,0.5],[0,0.25]];outlineConnect=0;gradientColor=none;html=1;whiteSpace=wrap;fontSize=12;fontStyle=0;container=1;pointerEvents=0;collapsible=0;recursiveResize=0;shape=mxgraph.aws4.group;grIcon=mxgraph.aws4.group_vpc2;strokeColor=#8C4FFF;fillColor=none;verticalAlign=top;align=left;spacingLeft=30;fontColor=#AAB7B8;dashed=0;" parent="1" vertex="1">
          <mxGeometry x="180" y="20" width="1010" height="1100" as="geometry" />
        </mxCell>
        <mxCell id="3UC_5LDF5LVwpQxS6LM1-27" value="" style="rounded=1;whiteSpace=wrap;html=1;fillColor=#FFFFCC;" parent="Idra984USDowkpM-jz45-1" vertex="1">
          <mxGeometry x="5.57" y="710" width="804.43" height="140" as="geometry" />
        </mxCell>
        <mxCell id="IZer0b47CVGwDbyN5lTZ-26" value="" style="rounded=1;whiteSpace=wrap;html=1;fillColor=#FFFFCC;" parent="Idra984USDowkpM-jz45-1" vertex="1">
          <mxGeometry x="-10" y="120" width="860" height="580" as="geometry" />
        </mxCell>
        <object label="" Airflow="" id="Idra984USDowkpM-jz45-10">
          <mxCell style="shape=process;whiteSpace=wrap;html=1;backgroundOutline=1;fontFamily=Times New Roman;fillColor=#E6E6E6;" parent="Idra984USDowkpM-jz45-1" vertex="1">
            <mxGeometry x="70.5" y="220" width="489.5" height="110" as="geometry" />
          </mxCell>
        </object>
        <mxCell id="Idra984USDowkpM-jz45-11" value="&lt;font&gt;Missing Data, Imputer, Outlier etc&lt;/font&gt;" style="rounded=1;whiteSpace=wrap;html=1;fillColor=#FFF4C3;" parent="Idra984USDowkpM-jz45-1" vertex="1">
          <mxGeometry x="135" y="250" width="175.5" height="60" as="geometry" />
        </mxCell>
        <mxCell id="IZer0b47CVGwDbyN5lTZ-1" value="&lt;b&gt;&lt;font&gt;EDA&lt;/font&gt;&lt;/b&gt;" style="text;html=1;align=center;verticalAlign=middle;whiteSpace=wrap;rounded=0;fontColor=#3333FF;" parent="Idra984USDowkpM-jz45-1" vertex="1">
          <mxGeometry x="262.75" y="225" width="130" height="10" as="geometry" />
        </mxCell>
        <mxCell id="IZer0b47CVGwDbyN5lTZ-6" value="" style="rounded=0;whiteSpace=wrap;html=1;fillColor=#E6E6E6;" parent="Idra984USDowkpM-jz45-1" vertex="1">
          <mxGeometry x="79.5" y="20" width="720.5" height="80" as="geometry" />
        </mxCell>
        <mxCell id="IZer0b47CVGwDbyN5lTZ-7" value="RAW Data" style="sketch=0;points=[[0,0,0],[0.25,0,0],[0.5,0,0],[0.75,0,0],[1,0,0],[0,1,0],[0.25,1,0],[0.5,1,0],[0.75,1,0],[1,1,0],[0,0.25,0],[0,0.5,0],[0,0.75,0],[1,0.25,0],[1,0.5,0],[1,0.75,0]];outlineConnect=0;fontColor=#232F3E;fillColor=#7AA116;strokeColor=#ffffff;dashed=0;verticalLabelPosition=bottom;verticalAlign=top;align=center;html=1;fontSize=12;fontStyle=0;aspect=fixed;shape=mxgraph.aws4.resourceIcon;resIcon=mxgraph.aws4.s3;" parent="Idra984USDowkpM-jz45-1" vertex="1">
          <mxGeometry x="167" y="30" width="47" height="40" as="geometry" />
        </mxCell>
        <mxCell id="IZer0b47CVGwDbyN5lTZ-9" value="Gold Data" style="sketch=0;points=[[0,0,0],[0.25,0,0],[0.5,0,0],[0.75,0,0],[1,0,0],[0,1,0],[0.25,1,0],[0.5,1,0],[0.75,1,0],[1,1,0],[0,0.25,0],[0,0.5,0],[0,0.75,0],[1,0.25,0],[1,0.5,0],[1,0.75,0]];outlineConnect=0;fontColor=#232F3E;fillColor=#7AA116;strokeColor=#ffffff;dashed=0;verticalLabelPosition=bottom;verticalAlign=top;align=center;html=1;fontSize=12;fontStyle=0;aspect=fixed;shape=mxgraph.aws4.resourceIcon;resIcon=mxgraph.aws4.s3;" parent="Idra984USDowkpM-jz45-1" vertex="1">
          <mxGeometry x="739.25" y="30" width="44" height="40" as="geometry" />
        </mxCell>
        <mxCell id="IZer0b47CVGwDbyN5lTZ-8" value="Silver Data" style="sketch=0;points=[[0,0,0],[0.25,0,0],[0.5,0,0],[0.75,0,0],[1,0,0],[0,1,0],[0.25,1,0],[0.5,1,0],[0.75,1,0],[1,1,0],[0,0.25,0],[0,0.5,0],[0,0.75,0],[1,0.25,0],[1,0.5,0],[1,0.75,0]];outlineConnect=0;fontColor=#232F3E;fillColor=#7AA116;strokeColor=#ffffff;dashed=0;verticalLabelPosition=bottom;verticalAlign=top;align=center;html=1;fontSize=12;fontStyle=0;aspect=fixed;shape=mxgraph.aws4.resourceIcon;resIcon=mxgraph.aws4.s3;" parent="Idra984USDowkpM-jz45-1" vertex="1">
          <mxGeometry x="339.5" y="30" width="40" height="40" as="geometry" />
        </mxCell>
        <mxCell id="IZer0b47CVGwDbyN5lTZ-14" value="&lt;b&gt;Untouched logs&lt;/b&gt;" style="endArrow=classic;html=1;rounded=0;strokeWidth=2;" parent="Idra984USDowkpM-jz45-1" source="IZer0b47CVGwDbyN5lTZ-7" edge="1">
          <mxGeometry width="50" height="50" relative="1" as="geometry">
            <mxPoint x="170" y="130" as="sourcePoint" />
            <mxPoint x="190" y="149" as="targetPoint" />
          </mxGeometry>
        </mxCell>
        <mxCell id="IZer0b47CVGwDbyN5lTZ-16" value="&lt;font&gt;Store EDA Statistics/report in S3&lt;/font&gt;" style="rounded=1;whiteSpace=wrap;html=1;fillColor=#FFF4C3;" parent="Idra984USDowkpM-jz45-1" vertex="1">
          <mxGeometry x="339.5" y="250" width="161" height="60" as="geometry" />
        </mxCell>
        <mxCell id="IZer0b47CVGwDbyN5lTZ-23" value="&lt;div&gt;&lt;b&gt;&lt;br&gt;&amp;nbsp;&lt;/b&gt;&lt;/div&gt;" style="endArrow=classic;html=1;rounded=0;strokeColor=#006600;strokeWidth=2;exitX=0.961;exitY=0.018;exitDx=0;exitDy=0;exitPerimeter=0;" parent="Idra984USDowkpM-jz45-1" source="Idra984USDowkpM-jz45-6" target="IZer0b47CVGwDbyN5lTZ-9" edge="1">
          <mxGeometry x="-0.0494" y="-19" width="50" height="50" relative="1" as="geometry">
            <mxPoint x="710" y="640" as="sourcePoint" />
            <mxPoint x="410" y="270" as="targetPoint" />
            <Array as="points" />
            <mxPoint as="offset" />
          </mxGeometry>
        </mxCell>
        <mxCell id="tiEQkZNQ4Z9jilumS47c-22" value="&lt;div&gt;&lt;b style=&quot;color: light-dark(rgb(0, 0, 0), rgb(255, 255, 255));&quot;&gt;Final feature sets for&amp;nbsp;&lt;/b&gt;&lt;/div&gt;&lt;div&gt;&lt;b style=&quot;color: light-dark(rgb(0, 0, 0), rgb(255, 255, 255));&quot;&gt;model training&lt;/b&gt;&lt;b style=&quot;color: light-dark(rgb(0, 0, 0), rgb(255, 255, 255));&quot;&gt;/in&amp;nbsp;&lt;/b&gt;&lt;/div&gt;&lt;div&gt;&lt;b style=&quot;color: light-dark(rgb(0, 0, 0), rgb(255, 255, 255));&quot;&gt;(log sequences, labels, metrics)&lt;/b&gt;&lt;/div&gt;" style="edgeLabel;html=1;align=center;verticalAlign=middle;resizable=0;points=[];labelBackgroundColor=#FFFFCC;" parent="IZer0b47CVGwDbyN5lTZ-23" vertex="1" connectable="0">
          <mxGeometry x="0.0078" relative="1" as="geometry">
            <mxPoint x="59" y="-4" as="offset" />
          </mxGeometry>
        </mxCell>
        <mxCell id="pskzZcz5doiqPmut8K4R-12" value="&lt;font style=&quot;font-size: 20px;&quot;&gt;&lt;b&gt;Apache Airflow&lt;/b&gt;&lt;/font&gt;" style="text;html=1;align=center;verticalAlign=middle;whiteSpace=wrap;rounded=0;rotation=90;" parent="Idra984USDowkpM-jz45-1" vertex="1">
          <mxGeometry x="-48.78" y="436" width="167.07" height="30" as="geometry" />
        </mxCell>
        <mxCell id="QqQgALuab_vRUSHk4DBb-1" value="" style="rounded=0;whiteSpace=wrap;html=1;fillColor=#E6E6E6;" parent="Idra984USDowkpM-jz45-1" vertex="1">
          <mxGeometry x="70.5" y="380" width="509.5" height="86" as="geometry" />
        </mxCell>
        <mxCell id="Idra984USDowkpM-jz45-6" value="" style="shape=process;whiteSpace=wrap;html=1;backgroundOutline=1;fillColor=#D5E8D4;" parent="Idra984USDowkpM-jz45-1" vertex="1">
          <mxGeometry x="38.32" y="580" width="751.68" height="110" as="geometry" />
        </mxCell>
        <mxCell id="Idra984USDowkpM-jz45-7" value="&lt;b&gt;Log Parser&lt;/b&gt;&lt;div&gt;(convert Log lines to Log Key which is&amp;nbsp; LogTemplate)&lt;/div&gt;" style="rounded=1;whiteSpace=wrap;html=1;fillColor=#FFF4C3;" parent="Idra984USDowkpM-jz45-1" vertex="1">
          <mxGeometry x="230" y="621" width="100.5" height="60" as="geometry" />
        </mxCell>
        <mxCell id="Idra984USDowkpM-jz45-9" value="&lt;b&gt;Prepare inputs for the BERT model&lt;/b&gt;&lt;div&gt;(create input embedding for BERT)&lt;/div&gt;" style="rounded=1;whiteSpace=wrap;html=1;fillColor=#FFF4C3;" parent="Idra984USDowkpM-jz45-1" vertex="1">
          <mxGeometry x="580" y="620" width="133" height="60" as="geometry" />
        </mxCell>
        <mxCell id="Idra984USDowkpM-jz45-8" value="&lt;b&gt;Log Sequence Builder&lt;/b&gt;&lt;div&gt;(Convert to Log Keys to Log Sequence&lt;/div&gt;" style="rounded=1;whiteSpace=wrap;html=1;fillColor=#FFF4C3;" parent="Idra984USDowkpM-jz45-1" vertex="1">
          <mxGeometry x="378.43" y="619" width="132.63" height="58" as="geometry" />
        </mxCell>
        <mxCell id="Idra984USDowkpM-jz45-23" value="&lt;b&gt;&lt;font&gt;Log Preprocessing&lt;/font&gt;&lt;/b&gt;" style="text;html=1;align=center;verticalAlign=middle;whiteSpace=wrap;rounded=0;fontColor=#3333FF;" parent="Idra984USDowkpM-jz45-1" vertex="1">
          <mxGeometry x="293" y="580" width="145" height="30" as="geometry" />
        </mxCell>
        <mxCell id="pskzZcz5doiqPmut8K4R-1" value="" style="endArrow=classic;html=1;rounded=0;entryX=0;entryY=0.5;entryDx=0;entryDy=0;exitX=1;exitY=0.5;exitDx=0;exitDy=0;" parent="Idra984USDowkpM-jz45-1" source="Idra984USDowkpM-jz45-7" target="Idra984USDowkpM-jz45-8" edge="1">
          <mxGeometry width="50" height="50" relative="1" as="geometry">
            <mxPoint x="214" y="650" as="sourcePoint" />
            <mxPoint x="264" y="600" as="targetPoint" />
            <Array as="points" />
          </mxGeometry>
        </mxCell>
        <mxCell id="pskzZcz5doiqPmut8K4R-2" value="Log&amp;nbsp;&lt;div&gt;Keys&lt;/div&gt;" style="edgeLabel;html=1;align=center;verticalAlign=middle;resizable=0;points=[];" parent="pskzZcz5doiqPmut8K4R-1" vertex="1" connectable="0">
          <mxGeometry x="-0.2917" y="1" relative="1" as="geometry">
            <mxPoint as="offset" />
          </mxGeometry>
        </mxCell>
        <mxCell id="pskzZcz5doiqPmut8K4R-4" value="Log&amp;nbsp;&lt;div&gt;Sequence&lt;/div&gt;" style="endArrow=classic;html=1;rounded=0;entryX=0;entryY=0.5;entryDx=0;entryDy=0;exitX=0.98;exitY=0.552;exitDx=0;exitDy=0;exitPerimeter=0;" parent="Idra984USDowkpM-jz45-1" source="Idra984USDowkpM-jz45-8" target="Idra984USDowkpM-jz45-9" edge="1">
          <mxGeometry width="50" height="50" relative="1" as="geometry">
            <mxPoint x="419.75" y="645.5" as="sourcePoint" />
            <mxPoint x="508.75" y="644.5" as="targetPoint" />
            <Array as="points" />
          </mxGeometry>
        </mxCell>
        <mxCell id="QqQgALuab_vRUSHk4DBb-4" value="DVC Tracking" style="rounded=0;whiteSpace=wrap;html=1;fillColor=#E6E6E6;" parent="Idra984USDowkpM-jz45-1" vertex="1">
          <mxGeometry x="79.5" y="150" width="220.5" height="30" as="geometry" />
        </mxCell>
        <mxCell id="IZer0b47CVGwDbyN5lTZ-19" value="&lt;b&gt;&lt;font&gt;Data Lake&lt;/font&gt;&lt;/b&gt;" style="text;html=1;align=center;verticalAlign=middle;whiteSpace=wrap;rounded=0;fontColor=#3333FF;" parent="Idra984USDowkpM-jz45-1" vertex="1">
          <mxGeometry x="395" y="20" width="130" height="30" as="geometry" />
        </mxCell>
        <mxCell id="tiEQkZNQ4Z9jilumS47c-1" value="" style="endArrow=classic;html=1;rounded=0;exitX=0.5;exitY=1;exitDx=0;exitDy=0;strokeWidth=2;" parent="Idra984USDowkpM-jz45-1" source="QqQgALuab_vRUSHk4DBb-4" edge="1">
          <mxGeometry width="50" height="50" relative="1" as="geometry">
            <mxPoint x="178" y="184" as="sourcePoint" />
            <mxPoint x="190" y="217" as="targetPoint" />
            <Array as="points" />
          </mxGeometry>
        </mxCell>
        <mxCell id="tiEQkZNQ4Z9jilumS47c-3" value="&lt;b&gt;Validation - Great Expectation&lt;/b&gt;" style="text;html=1;align=center;verticalAlign=middle;whiteSpace=wrap;rounded=0;fontColor=#3333FF;" parent="Idra984USDowkpM-jz45-1" vertex="1">
          <mxGeometry x="239" y="380" width="199" height="20" as="geometry" />
        </mxCell>
        <mxCell id="tiEQkZNQ4Z9jilumS47c-4" value="&lt;font&gt;Validate Data&amp;nbsp; based on&lt;/font&gt;&lt;div&gt;expectation suit&lt;/div&gt;" style="rounded=1;whiteSpace=wrap;html=1;fillColor=#FFF4C3;" parent="Idra984USDowkpM-jz45-1" vertex="1">
          <mxGeometry x="111.13" y="410" width="148.87" height="40" as="geometry" />
        </mxCell>
        <mxCell id="tiEQkZNQ4Z9jilumS47c-5" value="Store Validation Report in AWS S3 bucket" style="rounded=1;whiteSpace=wrap;html=1;fillColor=#FFF4C3;" parent="Idra984USDowkpM-jz45-1" vertex="1">
          <mxGeometry x="395" y="410" width="149.5" height="40" as="geometry" />
        </mxCell>
        <mxCell id="tiEQkZNQ4Z9jilumS47c-7" value="Validation Result" style="endArrow=classic;html=1;rounded=0;exitX=1;exitY=0.5;exitDx=0;exitDy=0;entryX=0;entryY=0.5;entryDx=0;entryDy=0;labelBackgroundColor=#FFFFCC;" parent="Idra984USDowkpM-jz45-1" source="tiEQkZNQ4Z9jilumS47c-4" target="tiEQkZNQ4Z9jilumS47c-5" edge="1">
          <mxGeometry width="50" height="50" relative="1" as="geometry">
            <mxPoint x="450" y="330" as="sourcePoint" />
            <mxPoint x="500" y="280" as="targetPoint" />
          </mxGeometry>
        </mxCell>
        <mxCell id="tiEQkZNQ4Z9jilumS47c-8" value="" style="endArrow=classic;html=1;rounded=0;exitX=0.25;exitY=1;exitDx=0;exitDy=0;strokeWidth=2;" parent="Idra984USDowkpM-jz45-1" source="Idra984USDowkpM-jz45-10" edge="1">
          <mxGeometry width="50" height="50" relative="1" as="geometry">
            <mxPoint x="450" y="390" as="sourcePoint" />
            <mxPoint x="193" y="380" as="targetPoint" />
          </mxGeometry>
        </mxCell>
        <mxCell id="tiEQkZNQ4Z9jilumS47c-10" value="" style="endArrow=classic;html=1;rounded=0;exitX=0.25;exitY=1;exitDx=0;exitDy=0;entryX=0.229;entryY=0.013;entryDx=0;entryDy=0;entryPerimeter=0;strokeWidth=2;" parent="Idra984USDowkpM-jz45-1" source="QqQgALuab_vRUSHk4DBb-1" target="tiEQkZNQ4Z9jilumS47c-17" edge="1">
          <mxGeometry width="50" height="50" relative="1" as="geometry">
            <mxPoint x="450" y="500" as="sourcePoint" />
            <mxPoint x="310.90708221886257" y="510.7256657750902" as="targetPoint" />
          </mxGeometry>
        </mxCell>
        <mxCell id="tiEQkZNQ4Z9jilumS47c-13" value="Validate Data" style="endArrow=classic;html=1;rounded=0;entryX=0.25;entryY=1;entryDx=0;entryDy=0;entryPerimeter=0;exitX=0.956;exitY=-0.013;exitDx=0;exitDy=0;exitPerimeter=0;strokeColor=#000099;strokeWidth=2;" parent="Idra984USDowkpM-jz45-1" source="tiEQkZNQ4Z9jilumS47c-17" target="IZer0b47CVGwDbyN5lTZ-8" edge="1">
          <mxGeometry width="50" height="50" relative="1" as="geometry">
            <mxPoint x="630" y="514" as="sourcePoint" />
            <mxPoint x="639.45" y="583.1800000000001" as="targetPoint" />
            <Array as="points">
              <mxPoint x="600" y="380" />
              <mxPoint x="600" y="210" />
              <mxPoint x="350" y="210" />
              <mxPoint x="350" y="150" />
              <mxPoint x="350" y="110" />
            </Array>
          </mxGeometry>
        </mxCell>
        <mxCell id="tiEQkZNQ4Z9jilumS47c-17" value="DVC Run for validated data" style="rounded=0;whiteSpace=wrap;html=1;fillColor=#E6E6E6;" parent="Idra984USDowkpM-jz45-1" vertex="1">
          <mxGeometry x="70.5" y="510" width="549.5" height="30" as="geometry" />
        </mxCell>
        <mxCell id="tiEQkZNQ4Z9jilumS47c-18" value="" style="endArrow=classic;html=1;rounded=0;exitX=0.75;exitY=1;exitDx=0;exitDy=0;exitPerimeter=0;strokeWidth=2;strokeColor=#000099;" parent="Idra984USDowkpM-jz45-1" source="IZer0b47CVGwDbyN5lTZ-8" edge="1">
          <mxGeometry width="50" height="50" relative="1" as="geometry">
            <mxPoint x="500" y="340" as="sourcePoint" />
            <mxPoint x="680" y="590" as="targetPoint" />
            <Array as="points">
              <mxPoint x="370" y="170" />
              <mxPoint x="680" y="170" />
            </Array>
          </mxGeometry>
        </mxCell>
        <mxCell id="tiEQkZNQ4Z9jilumS47c-20" value="Validated Data" style="edgeLabel;html=1;align=center;verticalAlign=middle;resizable=0;points=[];labelBackgroundColor=#FFFFCC;" parent="tiEQkZNQ4Z9jilumS47c-18" vertex="1" connectable="0">
          <mxGeometry x="-0.4601" y="3" relative="1" as="geometry">
            <mxPoint as="offset" />
          </mxGeometry>
        </mxCell>
        <mxCell id="3UC_5LDF5LVwpQxS6LM1-1" value="&lt;b&gt;Structured Log&lt;/b&gt;&lt;div&gt;(convert log file from unstructured to structured)&lt;/div&gt;" style="rounded=1;whiteSpace=wrap;html=1;fillColor=#FFF4C3;" parent="Idra984USDowkpM-jz45-1" vertex="1">
          <mxGeometry x="111.13" y="621" width="100.5" height="60" as="geometry" />
        </mxCell>
        <mxCell id="3UC_5LDF5LVwpQxS6LM1-7" value="" style="shape=process;whiteSpace=wrap;html=1;backgroundOutline=1;fillColor=#D5E8D4;direction=south;" parent="Idra984USDowkpM-jz45-1" vertex="1">
          <mxGeometry x="821.25" y="725" width="62.5" height="235" as="geometry" />
        </mxCell>
        <mxCell id="3UC_5LDF5LVwpQxS6LM1-15" value="" style="sketch=0;points=[[0,0,0],[0.25,0,0],[0.5,0,0],[0.75,0,0],[1,0,0],[0,1,0],[0.25,1,0],[0.5,1,0],[0.75,1,0],[1,1,0],[0,0.25,0],[0,0.5,0],[0,0.75,0],[1,0.25,0],[1,0.5,0],[1,0.75,0]];outlineConnect=0;fontColor=#232F3E;fillColor=#E7157B;strokeColor=#ffffff;dashed=0;verticalLabelPosition=bottom;verticalAlign=top;align=center;html=1;fontSize=12;fontStyle=0;aspect=fixed;shape=mxgraph.aws4.resourceIcon;resIcon=mxgraph.aws4.api_gateway;" parent="Idra984USDowkpM-jz45-1" vertex="1">
          <mxGeometry x="378.43" y="990" width="78" height="78" as="geometry" />
        </mxCell>
        <mxCell id="3UC_5LDF5LVwpQxS6LM1-2" value="" style="shape=process;whiteSpace=wrap;html=1;backgroundOutline=1;fillColor=#D5E8D4;" parent="Idra984USDowkpM-jz45-1" vertex="1">
          <mxGeometry x="38.32" y="730" width="741.68" height="110" as="geometry" />
        </mxCell>
        <mxCell id="3UC_5LDF5LVwpQxS6LM1-5" value="" style="shape=process;whiteSpace=wrap;html=1;backgroundOutline=1;fillColor=#D5E8D4;" parent="Idra984USDowkpM-jz45-1" vertex="1">
          <mxGeometry x="44" y="860" width="736" height="90" as="geometry" />
        </mxCell>
        <mxCell id="3UC_5LDF5LVwpQxS6LM1-12" value="&lt;b&gt;Anamaly Detect&lt;/b&gt;&lt;div&gt;Detect anomaly based on fine tuned model&lt;b&gt;&lt;/b&gt;&lt;/div&gt;" style="rounded=1;whiteSpace=wrap;html=1;fillColor=#FFF4C3;" parent="Idra984USDowkpM-jz45-1" vertex="1">
          <mxGeometry x="570" y="764" width="128.94" height="60" as="geometry" />
        </mxCell>
        <mxCell id="3UC_5LDF5LVwpQxS6LM1-14" value="&lt;div&gt;&lt;b&gt;LLM (T5)&lt;/b&gt;&lt;/div&gt;&lt;div&gt;Integration with Lang Chain for contextual analysis&lt;b&gt;&lt;/b&gt;&lt;/div&gt;" style="rounded=1;whiteSpace=wrap;html=1;fillColor=#FFF4C3;" parent="Idra984USDowkpM-jz45-1" vertex="1">
          <mxGeometry x="170.26" y="882.5" width="469.75" height="55" as="geometry" />
        </mxCell>
        <mxCell id="3UC_5LDF5LVwpQxS6LM1-13" value="&lt;b&gt;&lt;font&gt;Contextual Analysis&lt;/font&gt;&lt;/b&gt;" style="text;html=1;align=center;verticalAlign=middle;whiteSpace=wrap;rounded=0;fontColor=#3333FF;" parent="Idra984USDowkpM-jz45-1" vertex="1">
          <mxGeometry x="332.63" y="856" width="145" height="30" as="geometry" />
        </mxCell>
        <mxCell id="3UC_5LDF5LVwpQxS6LM1-16" value="&lt;b&gt;&lt;font&gt;Monitoring&lt;/font&gt;&lt;/b&gt;" style="text;html=1;align=center;verticalAlign=middle;whiteSpace=wrap;rounded=0;fontColor=#3333FF;rotation=90;" parent="Idra984USDowkpM-jz45-1" vertex="1">
          <mxGeometry x="780" y="867" width="145" height="30" as="geometry" />
        </mxCell>
        <mxCell id="3UC_5LDF5LVwpQxS6LM1-17" value="" style="endArrow=classic;startArrow=classic;html=1;rounded=0;exitX=0.997;exitY=0.567;exitDx=0;exitDy=0;exitPerimeter=0;entryX=0.297;entryY=0.942;entryDx=0;entryDy=0;entryPerimeter=0;" parent="Idra984USDowkpM-jz45-1" source="3UC_5LDF5LVwpQxS6LM1-2" edge="1">
          <mxGeometry width="50" height="50" relative="1" as="geometry">
            <mxPoint x="750" y="840" as="sourcePoint" />
            <mxPoint x="814.875" y="792.7950000000001" as="targetPoint" />
          </mxGeometry>
        </mxCell>
        <mxCell id="3UC_5LDF5LVwpQxS6LM1-19" value="" style="endArrow=classic;html=1;rounded=0;" parent="Idra984USDowkpM-jz45-1" source="3UC_5LDF5LVwpQxS6LM1-5" edge="1">
          <mxGeometry width="50" height="50" relative="1" as="geometry">
            <mxPoint x="450" y="870" as="sourcePoint" />
            <mxPoint x="412" y="1000" as="targetPoint" />
            <Array as="points" />
          </mxGeometry>
        </mxCell>
        <mxCell id="3UC_5LDF5LVwpQxS6LM1-21" value="" style="rounded=1;whiteSpace=wrap;html=1;fillColor=#D4E1F5;" parent="Idra984USDowkpM-jz45-1" vertex="1">
          <mxGeometry x="119" y="750" width="271" height="80" as="geometry" />
        </mxCell>
        <mxCell id="3UC_5LDF5LVwpQxS6LM1-20" value="&lt;b&gt;Select Best Performing Model Detect&lt;/b&gt;&lt;div&gt;&lt;br&gt;&lt;/div&gt;" style="rounded=1;whiteSpace=wrap;html=1;fillColor=#FFF4C3;" parent="Idra984USDowkpM-jz45-1" vertex="1">
          <mxGeometry x="420" y="764" width="128.94" height="60" as="geometry" />
        </mxCell>
        <mxCell id="3UC_5LDF5LVwpQxS6LM1-22" value="&lt;font style=&quot;font-size: 10px;&quot;&gt;&lt;b&gt;Experiment Tracking of MLFlow&lt;/b&gt;&lt;/font&gt;" style="text;html=1;align=center;verticalAlign=middle;whiteSpace=wrap;rounded=0;" parent="Idra984USDowkpM-jz45-1" vertex="1">
          <mxGeometry x="156" y="744" width="190" height="30" as="geometry" />
        </mxCell>
        <mxCell id="3UC_5LDF5LVwpQxS6LM1-23" value="&lt;b&gt;Fine tune BERT&lt;/b&gt;&lt;div&gt;(Fine tune with Multitask training)&lt;/div&gt;" style="rounded=0;whiteSpace=wrap;html=1;fillColor=#FFF4C3;" parent="Idra984USDowkpM-jz45-1" vertex="1">
          <mxGeometry x="125.57" y="774" width="120" height="50" as="geometry" />
        </mxCell>
        <mxCell id="3UC_5LDF5LVwpQxS6LM1-24" value="&lt;b&gt;Evaluate the model performance&lt;/b&gt;" style="rounded=0;whiteSpace=wrap;html=1;fillColor=#FFF4C3;" parent="Idra984USDowkpM-jz45-1" vertex="1">
          <mxGeometry x="262.75" y="776" width="120" height="44" as="geometry" />
        </mxCell>
        <mxCell id="3UC_5LDF5LVwpQxS6LM1-18" value="" style="endArrow=classic;startArrow=classic;html=1;rounded=0;exitX=0.997;exitY=0.567;exitDx=0;exitDy=0;exitPerimeter=0;entryX=0.297;entryY=0.942;entryDx=0;entryDy=0;entryPerimeter=0;" parent="Idra984USDowkpM-jz45-1" edge="1">
          <mxGeometry width="50" height="50" relative="1" as="geometry">
            <mxPoint x="738" y="887" as="sourcePoint" />
            <mxPoint x="815" y="888" as="targetPoint" />
          </mxGeometry>
        </mxCell>
        <mxCell id="3UC_5LDF5LVwpQxS6LM1-26" value="&lt;b&gt;&lt;font style=&quot;color: rgb(0, 0, 204);&quot;&gt;Anamaly Detection&lt;/font&gt;&lt;/b&gt;" style="text;html=1;align=center;verticalAlign=middle;whiteSpace=wrap;rounded=0;" parent="Idra984USDowkpM-jz45-1" vertex="1">
          <mxGeometry x="335.5" y="725" width="134.5" height="30" as="geometry" />
        </mxCell>
        <mxCell id="3UC_5LDF5LVwpQxS6LM1-28" value="&lt;font style=&quot;&quot;&gt;MLFlow/ClearML&lt;/font&gt;" style="text;html=1;align=center;verticalAlign=middle;whiteSpace=wrap;rounded=0;rotation=90;fontStyle=1" parent="Idra984USDowkpM-jz45-1" vertex="1">
          <mxGeometry x="-24.37" y="779.13" width="93.75" height="30" as="geometry" />
        </mxCell>
        <mxCell id="3UC_5LDF5LVwpQxS6LM1-35" value="&lt;div&gt;&lt;b&gt;Label the Log entries&lt;/b&gt;&lt;/div&gt;" style="rounded=1;whiteSpace=wrap;html=1;fillColor=#FFF4C3;" parent="Idra984USDowkpM-jz45-1" vertex="1">
          <mxGeometry x="500" y="580" width="132.63" height="58" as="geometry" />
        </mxCell>
        <mxCell id="3UC_5LDF5LVwpQxS6LM1-31" value="Gradio UI" style="rounded=0;whiteSpace=wrap;html=1;fillColor=#D5E8D4;" parent="1" vertex="1">
          <mxGeometry x="200" y="1150" width="759.74" height="80" as="geometry" />
        </mxCell>
        <mxCell id="3UC_5LDF5LVwpQxS6LM1-32" value="" style="endArrow=classic;html=1;rounded=0;entryX=0.5;entryY=1;entryDx=0;entryDy=0;entryPerimeter=0;" parent="1" target="3UC_5LDF5LVwpQxS6LM1-15" edge="1">
          <mxGeometry width="50" height="50" relative="1" as="geometry">
            <mxPoint x="600" y="1150" as="sourcePoint" />
            <mxPoint x="680" y="920" as="targetPoint" />
          </mxGeometry>
        </mxCell>
      </root>
    </mxGraphModel>
  </diagram>
</mxfile>
